<svg width="20" height="20" viewBox="0 0 20 20" fill="none" xmlns="http://www.w3.org/2000/svg">
<path d="M3.55 15.625C4.6 14.9583 5.6375 14.4542 6.6625 14.1125C7.6875 13.7708 8.8 13.6 10 13.6C11.2 13.6 12.3167 13.7708 13.35 14.1125C14.3833 14.4542 15.425 14.9583 16.475 15.625C17.2083 14.725 17.7292 13.8167 18.0375 12.9C18.3458 11.9833 18.5 11.0167 18.5 10C18.5 7.58333 17.6875 5.5625 16.0625 3.9375C14.4375 2.3125 12.4167 1.5 10 1.5C7.58333 1.5 5.5625 2.3125 3.9375 3.9375C2.3125 5.5625 1.5 7.58333 1.5 10C1.5 11.0167 1.65833 11.9833 1.975 12.9C2.29167 13.8167 2.81667 14.725 3.55 15.625ZM10 10.75C9.03333 10.75 8.22083 10.4208 7.5625 9.7625C6.90417 9.10417 6.575 8.29167 6.575 7.325C6.575 6.35833 6.90417 5.54583 7.5625 4.8875C8.22083 4.22917 9.03333 3.9 10 3.9C10.9667 3.9 11.7792 4.22917 12.4375 4.8875C13.0958 5.54583 13.425 6.35833 13.425 7.325C13.425 8.29167 13.0958 9.10417 12.4375 9.7625C11.7792 10.4208 10.9667 10.75 10 10.75ZM10 20C8.6 20 7.29167 19.7375 6.075 19.2125C4.85833 18.6875 3.8 17.9708 2.9 17.0625C2 16.1542 1.29167 15.0917 0.775 13.875C0.258333 12.6583 0 11.3583 0 9.975C0 8.60833 0.2625 7.31667 0.7875 6.1C1.3125 4.88333 2.02917 3.825 2.9375 2.925C3.84583 2.025 4.90833 1.3125 6.125 0.7875C7.34167 0.2625 8.64167 0 10.025 0C11.3917 0 12.6833 0.2625 13.9 0.7875C15.1167 1.3125 16.175 2.025 17.075 2.925C17.975 3.825 18.6875 4.88333 19.2125 6.1C19.7375 7.31667 20 8.61667 20 10C20 11.3667 19.7375 12.6583 19.2125 13.875C18.6875 15.0917 17.975 16.1542 17.075 17.0625C16.175 17.9708 15.1167 18.6875 13.9 19.2125C12.6833 19.7375 11.3833 20 10 20Z" fill="#333333"/>
</svg>
