<svg width="88" height="88" viewBox="0 0 88 88" fill="none" xmlns="http://www.w3.org/2000/svg">
<path d="M7.33398 80.6667L24.384 33L55.2757 63.525L7.33398 80.6667ZM16.5923 71.4083L45.3756 61.1417L26.7673 42.4417L16.5923 71.4083ZM51.059 47.2083L47.9423 44.0917L69.9423 22.0917C71.8979 20.1361 74.3729 19.143 77.3673 19.1125C80.3618 19.0819 82.8368 20.0444 84.7923 22L86.3506 23.5583L83.234 26.675L81.4923 24.9333C80.3312 23.7722 78.9868 23.1764 77.459 23.1458C75.9312 23.1153 74.5562 23.7111 73.334 24.9333L51.059 47.2083ZM36.484 33L33.3673 29.8833L36.1173 27.1333C37.5229 25.7278 38.1798 24.1236 38.0881 22.3208C37.9965 20.518 37.3395 19.0055 36.1173 17.7833L33.5506 15.2167L36.6673 12.1L39.0506 14.4833C41.1895 16.6222 42.2437 19.2958 42.2132 22.5042C42.1826 25.7125 41.0979 28.3861 38.959 30.525L36.484 33ZM43.909 40.0583L40.7923 36.9417L54.7257 23.0083C55.8868 21.8472 56.452 20.3653 56.4215 18.5625C56.3909 16.7597 55.7951 15.2778 54.634 14.1167L49.0423 8.52499L52.159 5.40833L57.934 11.1833C59.8284 13.1389 60.8062 15.5986 60.8673 18.5625C60.9284 21.5264 59.9812 23.9861 58.0257 25.9417L43.909 40.0583ZM58.3923 54.6333L55.2757 51.5167L59.584 47.2083C61.7229 45.0694 64.2895 43.9694 67.284 43.9083C70.2784 43.8472 72.8451 44.8861 74.984 47.025L79.659 51.7L76.5423 54.8167L71.7757 50.05C70.3701 48.6444 68.9034 47.9417 67.3756 47.9417C65.8479 47.9417 64.3812 48.6444 62.9756 50.05L58.3923 54.6333Z" fill="#27AE60"/>
</svg>
