<svg width="24" height="24" viewBox="0 0 24 24" fill="none" xmlns="http://www.w3.org/2000/svg">
<path d="M3.93169 21C3.69459 21 3.45748 20.9098 3.27734 20.7283C2.91569 20.3667 2.91569 19.7803 3.27734 19.4187L19.4248 3.27123C19.7865 2.90959 20.3728 2.90959 20.7344 3.27123C21.0961 3.63288 21.0961 4.2192 20.7344 4.58107L4.58717 20.7283C4.40567 20.9087 4.16857 21 3.93169 21Z" fill="#333333"/>
<path d="M20.0803 21C19.8432 21 19.6063 20.9098 19.4259 20.7283L3.27734 4.58107C2.91569 4.2192 2.91569 3.63288 3.27734 3.27123C3.63898 2.90959 4.2253 2.90959 4.58717 3.27123L20.7344 19.4187C21.0961 19.7803 21.0961 20.3667 20.7344 20.7283C20.5529 20.9087 20.316 21 20.0803 21Z" fill="#333333"/>
</svg>
