<svg width="66" height="66" viewBox="0 0 66 66" fill="none" xmlns="http://www.w3.org/2000/svg">
<path d="M5.5 66C4.03333 66 2.75 65.45 1.65 64.35C0.55 63.25 0 61.9667 0 60.5V5.5C0 4.03333 0.55 2.75 1.65 1.65C2.75 0.55 4.03333 0 5.5 0H60.5C61.9667 0 63.25 0.55 64.35 1.65C65.45 2.75 66 4.03333 66 5.5V60.5C66 61.9667 65.45 63.25 64.35 64.35C63.25 65.45 61.9667 66 60.5 66H5.5ZM5.5 60.5H60.5V5.5H5.5V60.5ZM16.5 50.7833C17.2333 50.7833 17.875 50.5083 18.425 49.9583C18.975 49.4083 19.25 48.7667 19.25 48.0333C19.25 47.3 18.975 46.6583 18.425 46.1083C17.875 45.5583 17.2333 45.2833 16.5 45.2833C15.7667 45.2833 15.125 45.5583 14.575 46.1083C14.025 46.6583 13.75 47.3 13.75 48.0333C13.75 48.7667 14.025 49.4083 14.575 49.9583C15.125 50.5083 15.7667 50.7833 16.5 50.7833ZM16.5 35.75C17.2333 35.75 17.875 35.475 18.425 34.925C18.975 34.375 19.25 33.7333 19.25 33C19.25 32.2667 18.975 31.625 18.425 31.075C17.875 30.525 17.2333 30.25 16.5 30.25C15.7667 30.25 15.125 30.525 14.575 31.075C14.025 31.625 13.75 32.2667 13.75 33C13.75 33.7333 14.025 34.375 14.575 34.925C15.125 35.475 15.7667 35.75 16.5 35.75ZM16.5 20.7167C17.2333 20.7167 17.875 20.4417 18.425 19.8917C18.975 19.3417 19.25 18.7 19.25 17.9667C19.25 17.2333 18.975 16.5917 18.425 16.0417C17.875 15.4917 17.2333 15.2167 16.5 15.2167C15.7667 15.2167 15.125 15.4917 14.575 16.0417C14.025 16.5917 13.75 17.2333 13.75 17.9667C13.75 18.7 14.025 19.3417 14.575 19.8917C15.125 20.4417 15.7667 20.7167 16.5 20.7167ZM28.6 50.7833H50.9667V45.2833H28.6V50.7833ZM28.6 35.75H50.9667V30.25H28.6V35.75ZM28.6 20.7167H50.9667V15.2167H28.6V20.7167ZM5.5 60.5V5.5V60.5Z" fill="#27AE60"/>
</svg>
