<svg width="16" height="17" viewBox="0 0 16 17" fill="none" xmlns="http://www.w3.org/2000/svg">
<g opacity="0.3">
<path opacity="0.8" d="M12.6667 7.7H13.3333C13.7015 7.7 14 7.991 14 8.35V14.85C14 15.209 13.7015 15.5 13.3333 15.5H2.66667C2.29848 15.5 2 15.209 2 14.85V8.35C2 7.991 2.29848 7.7 2.66667 7.7H3.33333V7.05C3.33333 4.53711 5.42267 2.5 8 2.5C10.5773 2.5 12.6667 4.53711 12.6667 7.05V7.7ZM11.3333 7.7V7.05C11.3333 5.25508 9.84093 3.8 8 3.8C6.15905 3.8 4.66667 5.25508 4.66667 7.05V7.7H11.3333ZM7.33333 10.3V12.9H8.66667V10.3H7.33333Z" fill="#16161F"/>
</g>
</svg>
