<svg width="48" height="48" viewBox="0 0 48 48" fill="none" xmlns="http://www.w3.org/2000/svg">
<circle cx="24" cy="24" r="24" fill="#EB5757"/>
<path d="M15.1972 33.8185C14.9386 33.8185 14.6799 33.7201 14.4834 33.5221C14.0889 33.1276 14.0889 32.488 14.4834 32.0934L32.0988 14.478C32.4933 14.0835 33.133 14.0835 33.5275 14.478C33.922 14.8725 33.922 15.5122 33.5275 15.9069L15.9123 33.5221C15.7143 33.7189 15.4556 33.8185 15.1972 33.8185Z" fill="white"/>
<path d="M32.8139 33.8185C32.5552 33.8185 32.2968 33.7201 32.1 33.5221L14.4834 15.9069C14.0889 15.5122 14.0889 14.8725 14.4834 14.478C14.8779 14.0835 15.5175 14.0835 15.9123 14.478L33.5275 32.0934C33.922 32.488 33.922 33.1276 33.5275 33.5221C33.3295 33.7189 33.0711 33.8185 32.8139 33.8185Z" fill="white"/>
</svg>
