<svg width="293" height="30" viewBox="0 0 293 30" fill="none" xmlns="http://www.w3.org/2000/svg">
<path d="M0.52 29V3.8H7.648V29H0.52ZM25.1032 9.164C26.6152 9.164 27.9832 9.476 29.2072 10.1C30.4312 10.7 31.3912 11.636 32.0872 12.908C32.8072 14.18 33.1672 15.824 33.1672 17.84V29H26.3272V18.956C26.3272 17.564 26.0392 16.556 25.4632 15.932C24.9112 15.284 24.1312 14.96 23.1232 14.96C22.4032 14.96 21.7432 15.128 21.1432 15.464C20.5432 15.776 20.0752 16.268 19.7392 16.94C19.4032 17.612 19.2352 18.488 19.2352 19.568V29H12.3952V9.488H18.9112V15.032L17.6512 13.412C18.3952 11.996 19.4152 10.94 20.7112 10.244C22.0072 9.524 23.4712 9.164 25.1032 9.164ZM46.1736 29.324C43.6776 29.324 41.7336 28.712 40.3416 27.488C38.9496 26.24 38.2536 24.368 38.2536 21.872V5.132H45.0936V21.8C45.0936 22.496 45.2856 23.048 45.6696 23.456C46.0536 23.84 46.5456 24.032 47.1456 24.032C47.9616 24.032 48.6576 23.828 49.2336 23.42L50.9256 28.208C50.3496 28.592 49.6416 28.868 48.8016 29.036C47.9616 29.228 47.0856 29.324 46.1736 29.324ZM35.4096 15.32V10.208H49.5576V15.32H35.4096ZM63.2247 29.324C60.9207 29.324 58.9047 28.892 57.1767 28.028C55.4727 27.14 54.1407 25.94 53.1807 24.428C52.2447 22.892 51.7767 21.152 51.7767 19.208C51.7767 17.264 52.2327 15.536 53.1447 14.024C54.0807 12.488 55.3647 11.3 56.9967 10.46C58.6287 9.596 60.4647 9.164 62.5047 9.164C64.4247 9.164 66.1767 9.56 67.7607 10.352C69.3447 11.12 70.6047 12.26 71.5407 13.772C72.4767 15.284 72.9447 17.12 72.9447 19.28C72.9447 19.52 72.9327 19.796 72.9087 20.108C72.8847 20.42 72.8607 20.708 72.8367 20.972H57.3927V17.372H69.2007L66.6087 18.38C66.6327 17.492 66.4647 16.724 66.1047 16.076C65.7687 15.428 65.2887 14.924 64.6647 14.564C64.0647 14.204 63.3567 14.024 62.5407 14.024C61.7247 14.024 61.0047 14.204 60.3807 14.564C59.7807 14.924 59.3127 15.44 58.9767 16.112C58.6407 16.76 58.4727 17.528 58.4727 18.416V19.46C58.4727 20.42 58.6647 21.248 59.0487 21.944C59.4567 22.64 60.0327 23.18 60.7767 23.564C61.5207 23.924 62.4087 24.104 63.4407 24.104C64.4007 24.104 65.2167 23.972 65.8887 23.708C66.5847 23.42 67.2687 22.988 67.9407 22.412L71.5407 26.156C70.6047 27.188 69.4527 27.98 68.0847 28.532C66.7167 29.06 65.0967 29.324 63.2247 29.324ZM76.0983 29V9.488H82.6143V15.176L81.6423 13.556C82.2183 12.092 83.1543 11 84.4503 10.28C85.7463 9.536 87.3183 9.164 89.1663 9.164V15.32C88.8543 15.272 88.5783 15.248 88.3383 15.248C88.1223 15.224 87.8823 15.212 87.6183 15.212C86.2263 15.212 85.0983 15.596 84.2343 16.364C83.3703 17.108 82.9383 18.332 82.9383 20.036V29H76.0983ZM98.0226 29L89.9946 9.488H97.0146L103.423 25.796H99.8946L106.627 9.488H113.143L105.079 29H98.0226ZM114.911 29V9.488H121.751V29H114.911ZM118.331 7.328C117.083 7.328 116.075 6.98 115.307 6.284C114.539 5.588 114.155 4.724 114.155 3.692C114.155 2.66 114.539 1.796 115.307 1.1C116.075 0.403999 117.083 0.0559993 118.331 0.0559993C119.579 0.0559993 120.587 0.391999 121.355 1.064C122.123 1.712 122.507 2.552 122.507 3.584C122.507 4.664 122.123 5.564 121.355 6.284C120.611 6.98 119.603 7.328 118.331 7.328ZM136.42 29.324C134.116 29.324 132.1 28.892 130.372 28.028C128.668 27.14 127.336 25.94 126.376 24.428C125.44 22.892 124.972 21.152 124.972 19.208C124.972 17.264 125.428 15.536 126.34 14.024C127.276 12.488 128.56 11.3 130.192 10.46C131.824 9.596 133.66 9.164 135.7 9.164C137.62 9.164 139.372 9.56 140.956 10.352C142.54 11.12 143.8 12.26 144.736 13.772C145.672 15.284 146.14 17.12 146.14 19.28C146.14 19.52 146.128 19.796 146.104 20.108C146.08 20.42 146.056 20.708 146.032 20.972H130.588V17.372H142.396L139.804 18.38C139.828 17.492 139.66 16.724 139.3 16.076C138.964 15.428 138.484 14.924 137.86 14.564C137.26 14.204 136.552 14.024 135.736 14.024C134.92 14.024 134.2 14.204 133.576 14.564C132.976 14.924 132.508 15.44 132.172 16.112C131.836 16.76 131.668 17.528 131.668 18.416V19.46C131.668 20.42 131.86 21.248 132.244 21.944C132.652 22.64 133.228 23.18 133.972 23.564C134.716 23.924 135.604 24.104 136.636 24.104C137.596 24.104 138.412 23.972 139.084 23.708C139.78 23.42 140.464 22.988 141.136 22.412L144.736 26.156C143.8 27.188 142.648 27.98 141.28 28.532C139.912 29.06 138.292 29.324 136.42 29.324ZM153.586 29L146.638 9.488H153.118L158.626 25.796H155.53L161.254 9.488H167.086L172.594 25.796H169.57L175.258 9.488H181.27L174.322 29H167.698L163.018 15.5H165.034L160.21 29H153.586Z" fill="white"/>
<path d="M183.684 29V3.8H196.572C199.884 3.8 202.356 4.412 203.988 5.636C205.62 6.836 206.436 8.42 206.436 10.388C206.436 11.684 206.088 12.824 205.392 13.808C204.72 14.768 203.76 15.536 202.512 16.112C201.288 16.664 199.824 16.94 198.12 16.94L198.84 15.212C200.616 15.212 202.164 15.488 203.484 16.04C204.804 16.568 205.824 17.348 206.544 18.38C207.288 19.388 207.66 20.624 207.66 22.088C207.66 24.272 206.772 25.976 204.996 27.2C203.244 28.4 200.676 29 197.292 29H183.684ZM190.74 23.852H196.716C197.94 23.852 198.864 23.648 199.488 23.24C200.136 22.808 200.46 22.16 200.46 21.296C200.46 20.432 200.136 19.796 199.488 19.388C198.864 18.956 197.94 18.74 196.716 18.74H190.236V13.808H195.636C196.836 13.808 197.736 13.604 198.336 13.196C198.936 12.788 199.236 12.176 199.236 11.36C199.236 10.544 198.936 9.944 198.336 9.56C197.736 9.152 196.836 8.948 195.636 8.948H190.74V23.852ZM220.82 29.324C218.684 29.324 216.788 28.892 215.132 28.028C213.476 27.164 212.168 25.976 211.208 24.464C210.272 22.928 209.804 21.176 209.804 19.208C209.804 17.24 210.272 15.5 211.208 13.988C212.168 12.476 213.476 11.3 215.132 10.46C216.788 9.596 218.684 9.164 220.82 9.164C222.956 9.164 224.852 9.596 226.508 10.46C228.188 11.3 229.496 12.476 230.432 13.988C231.368 15.5 231.836 17.24 231.836 19.208C231.836 21.176 231.368 22.928 230.432 24.464C229.496 25.976 228.188 27.164 226.508 28.028C224.852 28.892 222.956 29.324 220.82 29.324ZM220.82 23.888C221.612 23.888 222.308 23.708 222.908 23.348C223.532 22.988 224.024 22.46 224.384 21.764C224.744 21.044 224.924 20.192 224.924 19.208C224.924 18.224 224.744 17.396 224.384 16.724C224.024 16.028 223.532 15.5 222.908 15.14C222.308 14.78 221.612 14.6 220.82 14.6C220.052 14.6 219.356 14.78 218.732 15.14C218.132 15.5 217.64 16.028 217.256 16.724C216.896 17.396 216.716 18.224 216.716 19.208C216.716 20.192 216.896 21.044 217.256 21.764C217.64 22.46 218.132 22.988 218.732 23.348C219.356 23.708 220.052 23.888 220.82 23.888ZM244.797 29.324C242.661 29.324 240.765 28.892 239.109 28.028C237.453 27.164 236.145 25.976 235.185 24.464C234.249 22.928 233.781 21.176 233.781 19.208C233.781 17.24 234.249 15.5 235.185 13.988C236.145 12.476 237.453 11.3 239.109 10.46C240.765 9.596 242.661 9.164 244.797 9.164C246.933 9.164 248.829 9.596 250.485 10.46C252.165 11.3 253.473 12.476 254.409 13.988C255.345 15.5 255.813 17.24 255.813 19.208C255.813 21.176 255.345 22.928 254.409 24.464C253.473 25.976 252.165 27.164 250.485 28.028C248.829 28.892 246.933 29.324 244.797 29.324ZM244.797 23.888C245.589 23.888 246.285 23.708 246.885 23.348C247.509 22.988 248.001 22.46 248.361 21.764C248.721 21.044 248.901 20.192 248.901 19.208C248.901 18.224 248.721 17.396 248.361 16.724C248.001 16.028 247.509 15.5 246.885 15.14C246.285 14.78 245.589 14.6 244.797 14.6C244.029 14.6 243.333 14.78 242.709 15.14C242.109 15.5 241.617 16.028 241.233 16.724C240.873 17.396 240.693 18.224 240.693 19.208C240.693 20.192 240.873 21.044 241.233 21.764C241.617 22.46 242.109 22.988 242.709 23.348C243.333 23.708 244.029 23.888 244.797 23.888ZM284.397 9.164C285.909 9.164 287.253 9.476 288.429 10.1C289.629 10.7 290.565 11.636 291.237 12.908C291.933 14.18 292.281 15.824 292.281 17.84V29H285.441V18.956C285.441 17.564 285.177 16.556 284.649 15.932C284.121 15.284 283.401 14.96 282.489 14.96C281.841 14.96 281.253 15.116 280.725 15.428C280.197 15.74 279.789 16.22 279.501 16.868C279.213 17.492 279.069 18.308 279.069 19.316V29H272.229V18.956C272.229 17.564 271.965 16.556 271.437 15.932C270.933 15.284 270.213 14.96 269.277 14.96C268.605 14.96 268.005 15.116 267.477 15.428C266.973 15.74 266.565 16.22 266.253 16.868C265.965 17.492 265.821 18.308 265.821 19.316V29H258.981V9.488H265.497V14.924L264.201 13.376C264.921 11.984 265.905 10.94 267.153 10.244C268.401 9.524 269.793 9.164 271.329 9.164C273.081 9.164 274.617 9.62 275.937 10.532C277.281 11.42 278.181 12.812 278.637 14.708L276.405 14.24C277.101 12.656 278.145 11.42 279.537 10.532C280.953 9.62 282.573 9.164 284.397 9.164Z" fill="#27AE60"/>
</svg>
